<?xml version="1.0" encoding="UTF-8"?>
<!--Generator: Apple Native CoreSVG 149-->
<!DOCTYPE svg
PUBLIC "-//W3C//DTD SVG 1.1//EN"
       "http://www.w3.org/Graphics/SVG/1.1/DTD/svg11.dtd">
<svg version="1.1" xmlns="http://www.w3.org/2000/svg" xmlns:xlink="http://www.w3.org/1999/xlink" width="3300" height="2200">
 <!--glyph: "uni1001B9.medium", point size: 100.000000, font version: "Version 16.0d18e1", template writer version: "8"-->
 <g id="Notes">
  <rect height="2200" id="artboard" style="fill:white;opacity:1" width="3300" x="0" y="0"/>
  <line id="" style="fill:none;stroke:black;opacity:1;stroke-width:0.5;" x1="263" x2="3036" y1="292" y2="292"/>
  <text style="stroke:none;fill:black;font-family:-apple-system,&quot;SF Pro Display&quot;,&quot;SF Pro Text&quot;,Helvetica,sans-serif;font-weight:bold;" transform="matrix(1 0 0 1 263 322)">Weight/Scale Variations</text>
  <text style="stroke:none;fill:black;font-family:-apple-system,&quot;SF Pro Display&quot;,&quot;SF Pro Text&quot;,Helvetica,sans-serif;text-anchor:middle;" transform="matrix(1 0 0 1 559.711 322)">Ultralight</text>
  <text style="stroke:none;fill:black;font-family:-apple-system,&quot;SF Pro Display&quot;,&quot;SF Pro Text&quot;,Helvetica,sans-serif;text-anchor:middle;" transform="matrix(1 0 0 1 856.422 322)">Thin</text>
  <text style="stroke:none;fill:black;font-family:-apple-system,&quot;SF Pro Display&quot;,&quot;SF Pro Text&quot;,Helvetica,sans-serif;text-anchor:middle;" transform="matrix(1 0 0 1 1153.13 322)">Light</text>
  <text style="stroke:none;fill:black;font-family:-apple-system,&quot;SF Pro Display&quot;,&quot;SF Pro Text&quot;,Helvetica,sans-serif;text-anchor:middle;" transform="matrix(1 0 0 1 1449.84 322)">Regular</text>
  <text style="stroke:none;fill:black;font-family:-apple-system,&quot;SF Pro Display&quot;,&quot;SF Pro Text&quot;,Helvetica,sans-serif;text-anchor:middle;" transform="matrix(1 0 0 1 1746.56 322)">Medium</text>
  <text style="stroke:none;fill:black;font-family:-apple-system,&quot;SF Pro Display&quot;,&quot;SF Pro Text&quot;,Helvetica,sans-serif;text-anchor:middle;" transform="matrix(1 0 0 1 2043.27 322)">Semibold</text>
  <text style="stroke:none;fill:black;font-family:-apple-system,&quot;SF Pro Display&quot;,&quot;SF Pro Text&quot;,Helvetica,sans-serif;text-anchor:middle;" transform="matrix(1 0 0 1 2339.98 322)">Bold</text>
  <text style="stroke:none;fill:black;font-family:-apple-system,&quot;SF Pro Display&quot;,&quot;SF Pro Text&quot;,Helvetica,sans-serif;text-anchor:middle;" transform="matrix(1 0 0 1 2636.69 322)">Heavy</text>
  <text style="stroke:none;fill:black;font-family:-apple-system,&quot;SF Pro Display&quot;,&quot;SF Pro Text&quot;,Helvetica,sans-serif;text-anchor:middle;" transform="matrix(1 0 0 1 2933.4 322)">Black</text>
  <line id="" style="fill:none;stroke:black;opacity:1;stroke-width:0.5;" x1="263" x2="3036" y1="1903" y2="1903"/>
  <g id="" transform="matrix(1 0 0 1 263 1933)">
   <path d="M9.24805 0.830078C13.5547 0.830078 17.1387-2.74414 17.1387-7.05078C17.1387-11.3574 13.5449-14.9316 9.23828-14.9316C4.94141-14.9316 1.36719-11.3574 1.36719-7.05078C1.36719-2.74414 4.95117 0.830078 9.24805 0.830078ZM9.24805-0.654297C5.70312-0.654297 2.87109-3.49609 2.87109-7.05078C2.87109-10.6055 5.69336-13.4473 9.23828-13.4473C12.793-13.4473 15.6348-10.6055 15.6445-7.05078C15.6543-3.49609 12.8027-0.654297 9.24805-0.654297ZM6.39648-6.31836L8.50586-6.31836L8.50586-4.19922C8.50586-3.75977 8.79883-3.45703 9.22852-3.45703C9.67773-3.45703 9.9707-3.75977 9.9707-4.19922L9.9707-6.31836L12.0996-6.31836C12.5391-6.31836 12.8418-6.61133 12.8418-7.04102C12.8418-7.48047 12.5391-7.7832 12.0996-7.7832L9.9707-7.7832L9.9707-9.89258C9.9707-10.3418 9.67773-10.6445 9.22852-10.6445C8.79883-10.6445 8.50586-10.3418 8.50586-9.89258L8.50586-7.7832L6.39648-7.7832C5.94727-7.7832 5.64453-7.48047 5.64453-7.04102C5.64453-6.61133 5.94727-6.31836 6.39648-6.31836Z"/>
  </g>
  <g id="" transform="matrix(1 0 0 1 281.506 1933)">
   <path d="M11.709 2.91016C17.1582 2.91016 21.6699-1.61133 21.6699-7.05078C21.6699-12.5 17.1484-17.0117 11.6992-17.0117C6.25977-17.0117 1.74805-12.5 1.74805-7.05078C1.74805-1.61133 6.26953 2.91016 11.709 2.91016ZM11.709 1.25C7.09961 1.25 3.41797-2.44141 3.41797-7.05078C3.41797-11.6602 7.08984-15.3516 11.6992-15.3516C16.3086-15.3516 20-11.6602 20.0098-7.05078C20.0195-2.44141 16.3184 1.25 11.709 1.25ZM7.98828-6.23047L10.8789-6.23047L10.8789-3.32031C10.8789-2.83203 11.2109-2.5 11.6895-2.5C12.1777-2.5 12.5195-2.83203 12.5195-3.32031L12.5195-6.23047L15.4297-6.23047C15.918-6.23047 16.25-6.5625 16.25-7.04102C16.25-7.5293 15.918-7.87109 15.4297-7.87109L12.5195-7.87109L12.5195-10.7617C12.5195-11.2695 12.1777-11.6016 11.6895-11.6016C11.2109-11.6016 10.8789-11.2598 10.8789-10.7617L10.8789-7.87109L7.98828-7.87109C7.48047-7.87109 7.14844-7.5293 7.14844-7.04102C7.14844-6.5625 7.49023-6.23047 7.98828-6.23047Z"/>
  </g>
  <g id="" transform="matrix(1 0 0 1 304.924 1933)">
   <path d="M14.9707 5.66406C21.9336 5.66406 27.6953-0.0976562 27.6953-7.05078C27.6953-14.0137 21.9238-19.7754 14.9609-19.7754C8.00781-19.7754 2.25586-14.0137 2.25586-7.05078C2.25586-0.0976562 8.01758 5.66406 14.9707 5.66406ZM14.9707 3.84766C8.93555 3.84766 4.08203-1.01562 4.08203-7.05078C4.08203-13.0957 8.92578-17.9492 14.9609-17.9492C21.0059-17.9492 25.8594-13.0957 25.8691-7.05078C25.8789-1.01562 21.0156 3.84766 14.9707 3.84766ZM10.0586-6.14258L14.0625-6.14258L14.0625-2.12891C14.0625-1.5918 14.4336-1.2207 14.9512-1.2207C15.4883-1.2207 15.8594-1.5918 15.8594-2.12891L15.8594-6.14258L19.8828-6.14258C20.4102-6.14258 20.791-6.51367 20.791-7.03125C20.791-7.56836 20.4199-7.94922 19.8828-7.94922L15.8594-7.94922L15.8594-11.9531C15.8594-12.5098 15.4883-12.8809 14.9512-12.8809C14.4336-12.8809 14.0625-12.5 14.0625-11.9531L14.0625-7.94922L10.0586-7.94922C9.50195-7.94922 9.13086-7.56836 9.13086-7.03125C9.13086-6.51367 9.51172-6.14258 10.0586-6.14258Z"/>
  </g>
  <text style="stroke:none;fill:black;font-family:-apple-system,&quot;SF Pro Display&quot;,&quot;SF Pro Text&quot;,Helvetica,sans-serif;font-weight:bold;" transform="matrix(1 0 0 1 263 1953)">Design Variations</text>
  <text style="stroke:none;fill:black;font-family:-apple-system,&quot;SF Pro Display&quot;,&quot;SF Pro Text&quot;,Helvetica,sans-serif;" transform="matrix(1 0 0 1 263 1971)">Symbols are supported in up to nine weights and three scales.</text>
  <text style="stroke:none;fill:black;font-family:-apple-system,&quot;SF Pro Display&quot;,&quot;SF Pro Text&quot;,Helvetica,sans-serif;" transform="matrix(1 0 0 1 263 1989)">For optimal layout with text and other symbols, vertically align</text>
  <text style="stroke:none;fill:black;font-family:-apple-system,&quot;SF Pro Display&quot;,&quot;SF Pro Text&quot;,Helvetica,sans-serif;" transform="matrix(1 0 0 1 263 2007)">symbols with the adjacent text.</text>
  <line id="" style="fill:none;stroke:#00AEEF;stroke-width:0.5;opacity:1.0;" x1="776" x2="776" y1="1919" y2="1933"/>
  <g id="" transform="matrix(1 0 0 1 776 1933)">
   <path d="M3.31055 0.126953C3.82812 0.126953 4.08203-0.0683594 4.26758-0.605469L5.52734-4.0625L11.2891-4.0625L12.5488-0.605469C12.7344-0.0683594 12.9883 0.126953 13.4961 0.126953C14.0137 0.126953 14.3457-0.185547 14.3457-0.673828C14.3457-0.839844 14.3164-0.986328 14.2383-1.20117L9.6582-13.3887C9.43359-13.9941 9.0332-14.2871 8.4082-14.2871C7.80273-14.2871 7.39258-13.9941 7.17773-13.3984L2.59766-1.19141C2.51953-0.976562 2.49023-0.830078 2.49023-0.664062C2.49023-0.175781 2.80273 0.126953 3.31055 0.126953ZM6.00586-5.53711L8.37891-12.1094L8.42773-12.1094L10.8008-5.53711Z"/>
  </g>
  <line id="" style="fill:none;stroke:#00AEEF;stroke-width:0.5;opacity:1.0;" x1="792.836" x2="792.836" y1="1919" y2="1933"/>
  <text style="stroke:none;fill:black;font-family:-apple-system,&quot;SF Pro Display&quot;,&quot;SF Pro Text&quot;,Helvetica,sans-serif;font-weight:bold;" transform="matrix(1 0 0 1 776 1953)">Margins</text>
  <text style="stroke:none;fill:black;font-family:-apple-system,&quot;SF Pro Display&quot;,&quot;SF Pro Text&quot;,Helvetica,sans-serif;" transform="matrix(1 0 0 1 776 1971)">Leading and trailing margins on the left and right side of each symbol</text>
  <text style="stroke:none;fill:black;font-family:-apple-system,&quot;SF Pro Display&quot;,&quot;SF Pro Text&quot;,Helvetica,sans-serif;" transform="matrix(1 0 0 1 776 1989)">can be adjusted by modifying the x-location of the margin guidelines.</text>
  <text style="stroke:none;fill:black;font-family:-apple-system,&quot;SF Pro Display&quot;,&quot;SF Pro Text&quot;,Helvetica,sans-serif;" transform="matrix(1 0 0 1 776 2007)">Modifications are automatically applied proportionally to all</text>
  <text style="stroke:none;fill:black;font-family:-apple-system,&quot;SF Pro Display&quot;,&quot;SF Pro Text&quot;,Helvetica,sans-serif;" transform="matrix(1 0 0 1 776 2025)">scales and weights.</text>
  <g id="" transform="matrix(1 0 0 1 1289 1933)">
   <path d="M2.8418 1.86523L4.54102 3.57422C5.40039 4.44336 6.38672 4.38477 7.31445 3.35938L17.4902-7.85156C17.7539-7.76367 18.0273-7.7832 18.3398-7.8418L19.4043-8.03711L20.0684-7.36328L20.0293-6.80664C19.9902-6.30859 20.1172-5.92773 20.6055-5.44922L21.3672-4.70703C21.8457-4.22852 22.4609-4.19922 22.9297-4.66797L25.8398-7.58789C26.3086-8.05664 26.2891-8.65234 25.8105-9.13086L25.0391-9.89258C24.5605-10.3711 24.1895-10.5273 23.7109-10.4883L23.1348-10.4395L22.4902-11.0742L22.7344-12.1973C22.8613-12.7637 22.7051-13.2031 22.1191-13.7891L19.9219-15.9766C16.582-19.2969 12.1484-19.2188 9.25781-16.3281C8.83789-15.918 8.80859-15.3418 9.04297-14.9512C9.27734-14.5898 9.73633-14.3555 10.3809-14.5215C11.8457-14.8633 13.3691-14.9219 14.7949-13.9844L14.209-12.5293C14.0137-12.0508 13.9844-11.6504 14.1113-11.2891L3.04688-0.898438C2.06055 0.0195312 1.98242 0.996094 2.8418 1.86523ZM10.752-15.957C13.1836-17.7344 16.4746-17.4316 18.7012-15.2051L21.1328-12.793C21.3672-12.5586 21.4062-12.373 21.3379-12.0312L21.0156-10.5469L22.5195-9.0625L23.5059-9.12109C23.7598-9.13086 23.8379-9.11133 24.0332-8.91602L24.6094-8.33984L22.168-5.89844L21.5918-6.47461C21.3965-6.66992 21.3672-6.74805 21.377-7.01172L21.4453-7.98828L19.9512-9.47266L18.4277-9.21875C18.1055-9.15039 17.959-9.17969 17.7148-9.41406L15.7129-11.416C15.459-11.6504 15.4297-11.8164 15.5859-12.1875L16.4648-14.2773C14.9023-15.7324 12.8711-16.3574 10.8398-15.7617C10.6836-15.7227 10.625-15.8496 10.752-15.957ZM5.27344 2.30469L4.10156 1.14258C3.63281 0.683594 3.74023 0.341797 4.14062-0.0195312L14.9512-10.1953L16.416-8.71094L6.42578 2.27539C6.07422 2.67578 5.74219 2.77344 5.27344 2.30469Z"/>
  </g>
  <text style="stroke:none;fill:black;font-family:-apple-system,&quot;SF Pro Display&quot;,&quot;SF Pro Text&quot;,Helvetica,sans-serif;font-weight:bold;" transform="matrix(1 0 0 1 1289 1953)">Exporting</text>
  <text style="stroke:none;fill:black;font-family:-apple-system,&quot;SF Pro Display&quot;,&quot;SF Pro Text&quot;,Helvetica,sans-serif;" transform="matrix(1 0 0 1 1289 1971)">Symbols should be outlined when exporting to ensure the</text>
  <text style="stroke:none;fill:black;font-family:-apple-system,&quot;SF Pro Display&quot;,&quot;SF Pro Text&quot;,Helvetica,sans-serif;" transform="matrix(1 0 0 1 1289 1989)">design is preserved when submitting to Xcode.</text>
  <text id="template-version" style="stroke:none;fill:black;font-family:-apple-system,&quot;SF Pro Display&quot;,&quot;SF Pro Text&quot;,Helvetica,sans-serif;text-anchor:end;" transform="matrix(1 0 0 1 3036 1933)">Template v.2.0</text>
  <text style="stroke:none;fill:black;font-family:-apple-system,&quot;SF Pro Display&quot;,&quot;SF Pro Text&quot;,Helvetica,sans-serif;text-anchor:end;" transform="matrix(1 0 0 1 3036 1951)">Requires Xcode 12 or greater</text>
  <text style="stroke:none;fill:black;font-family:-apple-system,&quot;SF Pro Display&quot;,&quot;SF Pro Text&quot;,Helvetica,sans-serif;text-anchor:end;" transform="matrix(1 0 0 1 3036 1969)">Generated from moon</text>
  <text style="stroke:none;fill:black;font-family:-apple-system,&quot;SF Pro Display&quot;,&quot;SF Pro Text&quot;,Helvetica,sans-serif;text-anchor:end;" transform="matrix(1 0 0 1 3036 1987)">Typeset at 100 points</text>
  <text style="stroke:none;fill:black;font-family:-apple-system,&quot;SF Pro Display&quot;,&quot;SF Pro Text&quot;,Helvetica,sans-serif;" transform="matrix(1 0 0 1 263 726)">Small</text>
  <text style="stroke:none;fill:black;font-family:-apple-system,&quot;SF Pro Display&quot;,&quot;SF Pro Text&quot;,Helvetica,sans-serif;" transform="matrix(1 0 0 1 263 1156)">Medium</text>
  <text style="stroke:none;fill:black;font-family:-apple-system,&quot;SF Pro Display&quot;,&quot;SF Pro Text&quot;,Helvetica,sans-serif;" transform="matrix(1 0 0 1 263 1586)">Large</text>
 </g>
 <g id="Guides">
  <g id="H-reference" style="fill:#27AAE1;stroke:none;" transform="matrix(1 0 0 1 339 696)">
   <path d="M0.976562 0L3.66211 0L12.9883-24.4629L45.752-24.4629L55.127 0L57.7637 0L30.6152-70.459L28.125-70.459ZM29.3457-67.1387L29.4434-67.1387L44.873-26.709L13.8672-26.709Z"/>
  </g>
  <line id="Baseline-S" style="fill:none;stroke:#27AAE1;opacity:1;stroke-width:0.5;" x1="263" x2="3036" y1="696" y2="696"/>
  <line id="Capline-S" style="fill:none;stroke:#27AAE1;opacity:1;stroke-width:0.5;" x1="263" x2="3036" y1="625.541" y2="625.541"/>
  <g id="H-reference" style="fill:#27AAE1;stroke:none;" transform="matrix(1 0 0 1 339 1126)">
   <path d="M0.976562 0L3.66211 0L12.9883-24.4629L45.752-24.4629L55.127 0L57.7637 0L30.6152-70.459L28.125-70.459ZM29.3457-67.1387L29.4434-67.1387L44.873-26.709L13.8672-26.709Z"/>
  </g>
  <line id="Baseline-M" style="fill:none;stroke:#27AAE1;opacity:1;stroke-width:0.5;" x1="263" x2="3036" y1="1126" y2="1126"/>
  <line id="Capline-M" style="fill:none;stroke:#27AAE1;opacity:1;stroke-width:0.5;" x1="263" x2="3036" y1="1055.54" y2="1055.54"/>
  <g id="H-reference" style="fill:#27AAE1;stroke:none;" transform="matrix(1 0 0 1 339 1556)">
   <path d="M0.976562 0L3.66211 0L12.9883-24.4629L45.752-24.4629L55.127 0L57.7637 0L30.6152-70.459L28.125-70.459ZM29.3457-67.1387L29.4434-67.1387L44.873-26.709L13.8672-26.709Z"/>
  </g>
  <line id="Baseline-L" style="fill:none;stroke:#27AAE1;opacity:1;stroke-width:0.5;" x1="263" x2="3036" y1="1556" y2="1556"/>
  <line id="Capline-L" style="fill:none;stroke:#27AAE1;opacity:1;stroke-width:0.5;" x1="263" x2="3036" y1="1485.54" y2="1485.54"/>
  <line id="left-margin" style="fill:none;stroke:#00AEEF;stroke-width:0.5;opacity:1.0;" x1="1391.98" x2="1391.98" y1="1030.79" y2="1150.12"/>
  <line id="right-margin" style="fill:none;stroke:#00AEEF;stroke-width:0.5;opacity:1.0;" x1="1507.71" x2="1507.71" y1="1030.79" y2="1150.12"/>
 </g>
 <g id="Symbols">
  <g id="Black-L" transform="matrix(1 0 0 1 2856.91 1556)">
   <path d="M109.229-20.3613C80.2246-20.3613 62.0605-37.6953 62.0605-65.8691C62.0605-73.6816 63.3301-81.2012 65.625-85.3516C67.1387-88.1348 67.8711-90.5762 67.8711-92.9199C67.8711-97.6074 64.5996-101.27 59.375-101.27C57.666-101.27 55.4688-100.83 52.832-99.7559C27.9297-89.6484 11.2793-64.7461 11.2793-37.5C11.2793 1.26953 39.6484 29.7363 78.418 29.7363C105.615 29.7363 129.15 14.3066 139.893-10.0098C141.211-12.9395 141.699-15.4785 141.699-17.4316C141.699-22.4121 138.477-25.4395 133.984-25.4395C131.641-25.4395 129.15-24.8535 126.172-23.3398C122.168-21.4355 115.674-20.3613 109.229-20.3613ZM31.3965-37.6953C31.3965-49.707 36.1816-62.3535 44.873-70.8984C44.2871-68.2129 43.9453-65.5273 43.9453-62.5C43.9453-25.5859 67.2852-2.58789 105.078-2.58789C107.031-2.58789 108.74-2.73438 110.449-3.27148C102.637 5.0293 90.7227 9.57031 78.6133 9.57031C51.3672 9.57031 31.3965-10.4492 31.3965-37.6953Z"/>
  </g>
  <g id="Heavy-L" transform="matrix(1 0 0 1 2560.79 1556)">
   <path d="M109.375-18.6035C78.8574-18.6035 59.8145-36.8164 59.8145-66.4062C59.8145-74.6582 61.1816-82.373 63.4766-86.6699C64.8438-89.209 65.4297-91.2598 65.4297-93.3105C65.4297-97.3145 62.5488-100.586 58.0078-100.586C56.5918-100.586 54.6387-100.195 52.2949-99.2676C27.832-89.3555 11.2793-64.5508 11.2793-37.5977C11.2793 0.976562 39.4531 29.248 78.0273 29.248C105.127 29.248 128.369 14.0625 138.965-9.96094C140.088-12.5 140.527-14.7461 140.527-16.3574C140.527-20.7031 137.598-23.4375 133.74-23.4375C131.787-23.4375 129.688-22.9492 127.1-21.6797C122.949-19.7754 116.064-18.6035 109.375-18.6035ZM28.6133-37.793C28.6133-51.8066 34.8633-66.0156 45.5566-74.9512C44.6289-71.4355 44.0918-67.7246 44.0918-63.6719C44.0918-26.2207 67.5781-3.125 105.908-3.125C108.984-3.125 111.67-3.4668 114.209-4.29688C105.957 6.00586 92.3828 11.8652 78.2227 11.8652C49.6094 11.8652 28.6133-9.13086 28.6133-37.793Z"/>
  </g>
  <g id="Bold-L" transform="matrix(1 0 0 1 2264.73 1556)">
   <path d="M109.473-16.6504C77.3438-16.6504 57.3242-35.8887 57.3242-67.041C57.3242-75.7324 58.7402-83.6426 61.084-88.1836C62.2559-90.3809 62.6953-91.9922 62.6953-93.75C62.6953-96.9727 60.2539-99.8535 56.4941-99.8535C55.4199-99.8535 53.7598-99.5117 51.6602-98.7305C27.6855-89.0137 11.2793-64.4043 11.2793-37.6953C11.2793 0.683594 39.209 28.7109 77.5879 28.7109C104.59 28.7109 127.539 13.8184 137.939-9.91211C138.867-12.0605 139.209-13.916 139.209-15.1855C139.209-18.8477 136.621-21.1426 133.496-21.1426C131.885-21.1426 130.322-20.8008 128.174-19.7754C123.779-17.8711 116.455-16.6504 109.473-16.6504ZM25.5371-37.9395C25.5371-54.1504 33.3984-70.1172 46.3379-79.4434C44.9707-75.0488 44.2383-70.2148 44.2383-64.9902C44.2383-27.002 67.9199-3.75977 106.836-3.75977C111.133-3.75977 114.941-4.24805 118.408-5.46875C109.619 7.03125 94.2383 14.4043 77.832 14.4043C47.6562 14.4043 25.5371-7.66602 25.5371-37.9395Z"/>
  </g>
  <g id="Semibold-L" transform="matrix(1 0 0 1 1968.49 1556)">
   <path d="M109.57-15.2832C76.2695-15.2832 55.6152-35.2051 55.6152-67.4805C55.6152-76.4648 57.0801-84.4727 59.4727-89.1602C60.498-91.2109 60.8398-92.5293 60.8398-93.9941C60.8398-96.7285 58.6914-99.3164 55.4688-99.3164C54.5898-99.3164 53.125-99.0723 51.2207-98.3398C27.5879-88.8184 11.2793-64.2578 11.2793-37.7441C11.2793 0.439453 39.0625 28.3203 77.2461 28.3203C104.199 28.3203 126.904 13.623 137.207-9.86328C138.037-11.7676 138.281-13.3789 138.281-14.4043C138.281-17.5781 135.986-19.5801 133.35-19.5801C131.982-19.5801 130.713-19.3359 128.906-18.5059C124.365-16.5527 116.748-15.2832 109.57-15.2832ZM23.4375-38.0371C23.4375-55.7617 32.4219-72.9492 46.9238-82.5195C45.2637-77.5391 44.3359-71.875 44.3359-65.918C44.3359-27.4902 68.1641-4.19922 107.471-4.19922C112.598-4.19922 117.188-4.83398 121.338-6.25C112.158 7.76367 95.5078 16.1621 77.5391 16.1621C46.2891 16.1621 23.4375-6.68945 23.4375-38.0371Z"/>
  </g>
  <g id="Medium-L" transform="matrix(1 0 0 1 1672.12 1556)">
   <path d="M109.619-14.2578C75.4883-14.2578 54.2969-34.7168 54.2969-67.7734C54.2969-77.002 55.8105-85.1562 58.2031-89.9414C59.1309-91.7969 59.4238-92.9199 59.4238-94.2383C59.4238-96.582 57.4707-98.9258 54.6387-98.9258C53.9551-98.9258 52.6367-98.7305 50.8789-98.0469C27.5391-88.623 11.2793-64.1602 11.2793-37.793C11.2793 0.244141 38.9648 28.0273 77.002 28.0273C103.906 28.0273 126.465 13.4766 136.621-9.81445C137.402-11.5234 137.598-12.9395 137.598-13.7695C137.598-16.6016 135.449-18.3594 133.203-18.3594C132.08-18.3594 131.055-18.2129 129.443-17.5293C124.805-15.5762 116.992-14.2578 109.619-14.2578ZM21.8262-38.0859C21.8262-56.9824 31.6406-75.0977 47.3145-84.8633C45.459-79.4434 44.4336-73.1934 44.4336-66.6016C44.4336-27.8809 68.3594-4.54102 107.959-4.54102C113.77-4.54102 118.896-5.22461 123.535-6.83594C114.111 8.30078 96.4844 17.5293 77.2949 17.5293C45.2637 17.5293 21.8262-5.95703 21.8262-38.0859Z"/>
  </g>
  <g id="Regular-L" transform="matrix(1 0 0 1 1375.87 1556)">
   <path d="M109.717-12.8906C74.4629-12.8906 52.5879-34.082 52.5879-68.2129C52.5879-77.7344 54.1504-86.0352 56.5918-90.9668C57.373-92.627 57.5684-93.457 57.5684-94.5312C57.5684-96.3379 55.9082-98.3887 53.6133-98.3887C53.125-98.3887 52.002-98.2422 50.4395-97.6562C27.4414-88.4277 11.2793-64.0625 11.2793-37.8418C11.2793 0.0488281 38.8184 27.6855 76.709 27.6855C103.516 27.6855 125.879 13.2812 135.938-9.76562C136.572-11.2305 136.67-12.4023 136.67-12.9883C136.67-15.332 134.814-16.8457 133.057-16.8457C132.129-16.8457 131.445-16.748 130.176-16.2598C125.342-14.2578 117.285-12.8906 109.717-12.8906ZM19.7266-38.1836C19.7266-58.5449 30.6641-77.8809 47.8516-87.9395C45.7031-81.8848 44.5312-74.8535 44.5312-67.5293C44.5312-28.418 68.6035-4.98047 108.594-4.98047C115.234-4.98047 121.143-5.81055 126.367-7.61719C116.602 9.0332 97.7539 19.2383 77.0508 19.2383C43.8965 19.2383 19.7266-4.93164 19.7266-38.1836Z"/>
  </g>
  <g id="Light-L" transform="matrix(1 0 0 1 1080.06 1556)">
   <path d="M108.984-12.0117C72.998-12.0117 50.6836-33.5938 50.6836-68.457C50.6836-77.9785 52.1973-86.0352 54.7852-91.5039C55.3711-92.9199 55.5664-93.6523 55.5664-94.4824C55.5664-95.9473 54.2969-97.5098 52.4902-97.5098C52.002-97.5098 51.0254-97.3633 49.8047-96.875C27.1973-87.9395 11.2793-63.8184 11.2793-38.0371C11.2793-0.634766 38.5254 26.6602 75.8789 26.6602C101.904 26.6602 124.414 12.3047 134.229-10.1074C134.717-11.2305 134.863-12.1582 134.863-12.6465C134.863-14.5508 133.447-15.7715 131.885-15.7715C131.201-15.7715 130.566-15.6738 129.59-15.2832C125.195-13.3789 116.553-12.0117 108.984-12.0117ZM17.7734-38.2324C17.7734-59.668 29.6875-79.9316 48.0469-89.6484C45.752-83.3008 44.4336-75.5859 44.4336-68.0176C44.4336-29.2969 68.5547-5.85938 108.252-5.85938C115.137-5.85938 121.631-6.78711 126.904-8.64258C116.895 9.22852 97.4609 20.2148 76.123 20.2148C42.4316 20.2148 17.7734-4.49219 17.7734-38.2324Z"/>
  </g>
  <g id="Thin-L" transform="matrix(1 0 0 1 784.596 1556)">
   <path d="M107.959-10.8887C71.0449-10.8887 48.1934-32.959 48.1934-68.75C48.1934-78.2227 49.6094-86.0352 52.3438-92.2363C52.7344-93.3105 52.9297-93.8965 52.9297-94.3848C52.9297-95.459 52.1484-96.2891 50.9766-96.2891C50.5371-96.2891 49.7559-96.1426 48.9258-95.8496C26.8066-87.3047 11.2793-63.5742 11.2793-38.2812C11.2793-1.51367 38.0859 25.3906 74.8535 25.3906C99.7559 25.3906 122.51 10.9863 132.031-10.5469C132.324-11.2305 132.373-11.8164 132.373-12.207C132.373-13.5254 131.592-14.3555 130.371-14.3555C129.932-14.3555 129.395-14.2578 128.809-13.9648C124.951-12.2559 115.576-10.8887 107.959-10.8887ZM15.1855-38.3301C15.1855-61.1816 28.418-82.5684 48.291-91.9434C45.8496-85.2051 44.3359-76.6113 44.3359-68.6523C44.3359-30.4688 68.5547-7.03125 107.812-7.03125C115.039-7.03125 122.266-8.05664 127.637-9.91211C117.236 9.47266 97.1191 21.4844 74.9023 21.4844C40.4297 21.4844 15.1855-3.85742 15.1855-38.3301Z"/>
  </g>
  <g id="Ultralight-L" transform="matrix(1 0 0 1 488.495 1556)">
   <path d="M107.471-10.3027C70.0684-10.3027 46.9238-32.6172 46.9238-68.8965C46.9238-78.3691 48.291-86.0352 51.123-92.627C51.416-93.5059 51.5625-94.043 51.5625-94.3359C51.5625-95.2148 51.0254-95.7031 50.2441-95.7031C49.7559-95.7031 49.0723-95.5078 48.4375-95.3125C26.6113-86.9629 11.2793-63.4277 11.2793-38.3789C11.2793-1.95312 37.8906 24.707 74.3164 24.707C98.6328 24.707 121.533 10.3516 130.859-10.791C131.055-11.2305 131.152-11.6211 131.152-12.0117C131.152-12.9883 130.664-13.623 129.59-13.623C129.248-13.623 128.809-13.5254 128.418-13.3301C124.854-11.6699 115.088-10.3027 107.471-10.3027ZM13.8672-38.3301C13.8672-61.9141 27.7832-83.9355 48.4375-93.0664C45.8984-86.1816 44.2871-77.0996 44.2871-68.9453C44.2871-31.0547 68.5547-7.66602 107.617-7.66602C114.99-7.66602 122.559-8.74023 127.979-10.5957C117.432 9.57031 96.9238 22.1191 74.2676 22.1191C39.4043 22.1191 13.8672-3.51562 13.8672-38.3301Z"/>
  </g>
  <g id="Black-M" transform="matrix(1 0 0 1 2873.81 1126)">
   <path d="M84.1309-25.6348C63.2324-25.6348 50.0977-38.0371 50.0977-58.3496C50.0977-63.8184 50.9766-69.3359 52.7832-72.6074C54.1016-75 54.7852-77.3438 54.7852-79.3945C54.7852-83.7891 51.9531-86.8164 47.2168-86.8164C45.5078-86.8164 43.5547-86.377 41.3574-85.498C21.6309-77.5391 8.74023-58.2031 8.74023-37.0117C8.74023-6.88477 30.8105 15.2344 60.9375 15.2344C81.6406 15.2344 100.391 2.97852 108.789-15.9668C109.912-18.457 110.449-20.752 110.449-22.6562C110.449-27.0996 107.764-29.834 103.516-29.834C101.367-29.834 98.877-29.1992 96.1914-27.7344C93.6035-26.3672 88.7695-25.6348 84.1309-25.6348ZM26.9531-37.0117C26.9531-44.2383 29.2969-52.3926 33.9355-58.3984C33.8867-57.2266 33.8379-56.1035 33.8379-55.0293C33.8379-27.2949 51.709-9.61914 80.127-9.61914C80.3223-9.61914 80.6152-9.61914 80.8105-9.57031C75.2441-5.17578 67.9199-3.07617 60.8887-3.07617C41.4062-3.07617 26.9531-17.4805 26.9531-37.0117Z"/>
  </g>
  <g id="Heavy-M" transform="matrix(1 0 0 1 2577.51 1126)">
   <path d="M84.4238-23.9258C62.1094-23.9258 48.1445-37.207 48.1445-58.8867C48.1445-64.8438 49.1211-70.6055 50.9277-73.877C52.0996-76.0742 52.6367-78.0273 52.6367-79.834C52.6367-83.5449 50.1465-86.3281 46.0449-86.3281C44.6289-86.3281 42.9199-85.9863 40.918-85.1562C21.582-77.3438 8.74023-58.0566 8.74023-37.0605C8.74023-7.03125 30.6641 14.9414 60.6934 14.9414C81.543 14.9414 99.9023 2.97852 108.203-15.8203C109.229-18.0176 109.619-20.0195 109.619-21.582C109.619-25.4883 107.178-27.8809 103.564-27.8809C101.758-27.8809 99.707-27.3926 97.3633-26.1719C94.4824-24.7559 89.3555-23.9258 84.4238-23.9258ZM24.4629-37.1094C24.4629-46.2402 28.125-55.8594 34.6191-62.3535C34.2285-60.3516 33.9844-58.3496 33.9844-56.2012C33.9844-27.832 52.0508-10.0098 81.1035-10.0098C82.4707-10.0098 83.6914-10.1562 84.8145-10.4492C78.8086-4.19922 69.8242-0.830078 60.7422-0.830078C39.8438-0.830078 24.4629-16.2109 24.4629-37.1094Z"/>
  </g>
  <g id="Bold-M" transform="matrix(1 0 0 1 2281.26 1126)">
   <path d="M84.7656-22.0215C60.8887-22.0215 45.9473-36.3281 45.9473-59.5215C45.9473-65.9668 47.0215-71.9727 48.8281-75.3418C49.8535-77.2461 50.2441-78.7598 50.2441-80.3223C50.2441-83.3008 48.0957-85.791 44.7266-85.791C43.6523-85.791 42.2363-85.498 40.4297-84.7656C21.5332-77.1484 8.74023-57.959 8.74023-37.0605C8.74023-7.22656 30.5176 14.6484 60.4004 14.6484C81.3965 14.6484 99.3652 2.92969 107.568-15.625C108.398-17.5293 108.691-19.2383 108.691-20.4102C108.691-23.6816 106.494-25.6836 103.613-25.6836C102.148-25.6836 100.635-25.3418 98.6816-24.4141C95.4102-22.9492 90.0391-22.0215 84.7656-22.0215ZM21.6797-37.2559C21.6797-48.4375 26.8066-59.7656 35.4492-66.748C34.6191-63.916 34.1797-60.8398 34.1797-57.5195C34.1797-28.3691 52.4414-10.4492 82.2266-10.4492C84.8145-10.4492 87.1094-10.7422 89.209-11.4258C82.7148-3.125 71.9238 1.70898 60.5469 1.70898C38.1348 1.70898 21.6797-14.7461 21.6797-37.2559Z"/>
  </g>
  <g id="Semibold-M" transform="matrix(1 0 0 1 1984.84 1126)">
   <path d="M85.0586-20.7031C60.0098-20.7031 44.4336-35.6934 44.4336-59.9121C44.4336-66.6992 45.6055-72.9004 47.3633-76.3672C48.291-78.0762 48.6328-79.2969 48.6328-80.6152C48.6328-83.1055 46.7285-85.4004 43.7988-85.4004C43.0176-85.4004 41.748-85.1562 40.0879-84.5215C21.4844-77.002 8.74023-57.8613 8.74023-37.1094C8.74023-7.32422 30.4199 14.4531 60.2051 14.4531C81.2988 14.4531 99.0234 2.92969 107.08-15.5273C107.861-17.2363 108.105-18.6523 108.105-19.6289C108.105-22.4121 106.055-24.2188 103.662-24.2188C102.441-24.2188 101.27-23.9746 99.6094-23.1934C96.0938-21.6797 90.4785-20.7031 85.0586-20.7031ZM19.7754-37.3047C19.7754-50 25.8789-62.4512 35.9863-69.7754C34.9121-66.3086 34.3262-62.5488 34.3262-58.3984C34.3262-28.7598 52.6855-10.7422 83.0078-10.7422C86.4746-10.7422 89.4531-11.1328 92.2852-12.1094C85.4492-2.34375 73.3887 3.41797 60.4492 3.41797C36.9629 3.41797 19.7754-13.7695 19.7754-37.3047Z"/>
  </g>
  <g id="Medium-M" transform="matrix(1 0 0 1 1688.38 1126)">
   <path d="M85.2051-19.7266C59.375-19.7266 43.3105-35.2051 43.3105-60.2539C43.3105-67.2852 44.4824-73.6328 46.2891-77.0996C47.1191-78.7109 47.3633-79.6875 47.3633-80.9082C47.3633-82.959 45.6543-85.1074 43.1152-85.1074C42.4805-85.1074 41.3574-84.9121 39.7949-84.3262C21.4844-76.8555 8.74023-57.7637 8.74023-37.1094C8.74023-7.42188 30.3711 14.2578 60.0586 14.2578C81.25 14.2578 98.7305 2.92969 106.738-15.4297C107.422-16.9434 107.617-18.2129 107.617-18.9941C107.617-21.4844 105.713-23.0469 103.711-23.0469C102.686-23.0469 101.758-22.9004 100.342-22.2656C96.582-20.7031 90.8203-19.7266 85.2051-19.7266ZM18.3105-37.4023C18.3105-51.1719 25.1953-64.502 36.4258-72.0703C35.1074-68.1641 34.4238-63.8184 34.4238-59.082C34.4238-29.0527 52.8809-10.9863 83.5938-10.9863C87.6953-10.9863 91.2598-11.4746 94.6289-12.6465C87.5-1.80664 74.4629 4.73633 60.3516 4.73633C36.0352 4.73633 18.3105-13.0371 18.3105-37.4023Z"/>
  </g>
  <g id="Regular-M" transform="matrix(1 0 0 1 1391.98 1126)">
   <path d="M85.4492-18.4082C58.5449-18.4082 41.8457-34.6191 41.8457-60.6445C41.8457-68.0664 43.0664-74.6094 44.873-78.125C45.6055-79.541 45.752-80.2246 45.752-81.2012C45.752-82.8125 44.2383-84.7168 42.1875-84.7168C41.7969-84.7168 40.8691-84.5703 39.502-84.0332C21.4355-76.709 8.74023-57.666 8.74023-37.1582C8.74023-7.51953 30.2734 14.0625 59.9121 14.0625C81.1523 14.0625 98.3887 2.92969 106.299-15.332C106.885-16.6016 106.982-17.6758 106.982-18.2129C106.982-20.2148 105.273-21.582 103.76-21.582C102.979-21.582 102.393-21.5332 101.221-21.0938C97.2656-19.4824 91.3086-18.4082 85.4492-18.4082ZM16.4062-37.5C16.4062-52.6855 24.3164-67.1387 36.9629-75.0977C35.4004-70.5566 34.5703-65.5273 34.5703-59.9609C34.5703-29.4434 53.1738-11.2793 84.3262-11.2793C89.3555-11.2793 93.6035-11.8652 97.6562-13.2812C90.2344-1.02539 75.9277 6.44531 60.2051 6.44531C34.8633 6.44531 16.4062-12.0117 16.4062-37.5Z"/>
  </g>
  <g id="Light-M" transform="matrix(1 0 0 1 1096.1 1126)">
   <path d="M84.7656-17.627C57.2266-17.627 40.1367-34.1797 40.1367-60.8398C40.1367-68.2617 41.3086-74.6094 43.2617-78.6133C43.7988-79.7852 43.9453-80.4199 43.9453-81.1523C43.9453-82.4707 42.8223-83.8867 41.1621-83.8867C40.8203-83.8867 39.9902-83.7891 38.8672-83.3496C21.1914-76.3184 8.74023-57.4707 8.74023-37.3047C8.74023-8.10547 29.9805 13.1836 59.1797 13.1836C79.6875 13.1836 97.0703 2.05078 104.785-15.625C105.225-16.6016 105.322-17.4316 105.322-17.8711C105.322-19.5312 104.004-20.6055 102.734-20.6055C102.1-20.6055 101.611-20.5566 100.684-20.2148C97.0703-18.7012 90.625-17.627 84.7656-17.627ZM14.6484-37.5488C14.6484-53.6621 23.4375-68.9453 37.1582-76.6602C35.4492-71.875 34.4727-66.2109 34.4727-60.4004C34.4727-30.2246 53.125-12.1094 84.0332-12.1094C89.2578-12.1094 94.043-12.7441 98.0957-14.1602C90.4785-0.878906 75.6836 7.32422 59.4238 7.32422C33.5449 7.32422 14.6484-11.6211 14.6484-37.5488Z"/>
  </g>
  <g id="Thin-M" transform="matrix(1 0 0 1 800.49 1126)">
   <path d="M83.8867-16.6016C55.4688-16.6016 37.8906-33.5938 37.8906-61.1328C37.8906-68.5059 39.0137-74.6094 41.1133-79.248C41.4551-80.1758 41.5527-80.6641 41.5527-81.1035C41.5527-82.0312 40.8691-82.8125 39.8438-82.8125C39.4531-82.8125 38.8184-82.7148 38.0859-82.4219C20.8496-75.7324 8.74023-57.2266 8.74023-37.5488C8.74023-8.88672 29.5898 12.0117 58.252 12.0117C77.7832 12.0117 95.3613 0.878906 102.783-16.0156C103.076-16.6016 103.125-17.1387 103.125-17.4805C103.125-18.6035 102.393-19.3359 101.367-19.3359C100.977-19.3359 100.537-19.2871 100-19.043C96.875-17.6758 89.7949-16.6016 83.8867-16.6016ZM12.3047-37.5977C12.3047-55.0293 22.3145-71.3379 37.3535-78.6621C35.498-73.5352 34.375-67.0898 34.375-60.9863C34.375-31.2988 53.125-13.1348 83.6426-13.1348C89.1602-13.1348 94.5801-13.916 98.7305-15.332C90.7715-0.634766 75.3418 8.44727 58.3008 8.44727C31.7871 8.44727 12.3047-11.0352 12.3047-37.5977Z"/>
  </g>
  <g id="Ultralight-M" transform="matrix(1 0 0 1 504.34 1126)">
   <path d="M83.4473-16.0645C54.5898-16.0645 36.7676-33.3008 36.7676-61.2793C36.7676-68.6035 37.793-74.6094 39.9902-79.5898C40.2344-80.3223 40.3809-80.7617 40.3809-81.0547C40.3809-81.7871 39.8926-82.2754 39.1602-82.2754C38.7695-82.2754 38.2324-82.1289 37.6953-81.9824C20.7031-75.4395 8.74023-57.1289 8.74023-37.6465C8.74023-9.32617 29.3945 11.4258 57.7637 11.4258C76.7578 11.4258 94.4824 0.292969 101.758-16.2109C101.953-16.6016 102.002-16.9922 102.002-17.2852C102.002-18.1641 101.514-18.7012 100.684-18.7012C100.391-18.7012 100-18.6523 99.6582-18.457C96.7773-17.1387 89.3555-16.0645 83.4473-16.0645ZM11.1328-37.6465C11.1328-55.7129 21.7285-72.5586 37.5-79.7363C35.5469-74.4141 34.375-67.5293 34.375-61.2793C34.375-31.8359 53.125-13.6719 83.4473-13.6719C89.1113-13.6719 94.873-14.502 99.0723-15.918C90.9668-0.537109 75.1465 9.0332 57.7637 9.0332C30.8594 9.0332 11.1328-10.7422 11.1328-37.6465Z"/>
  </g>
  <g id="Black-S" transform="matrix(1 0 0 1 2886.74 696)">
   <path d="M65.918-27.5879C49.4629-27.5879 39.1113-37.3535 39.1113-53.3691C39.1113-57.7148 39.7949-62.0605 41.2109-64.5996C42.2363-66.4551 42.7734-68.2617 42.7734-69.873C42.7734-73.2422 40.5762-75.6348 36.9141-75.6348C35.5957-75.6348 34.082-75.293 32.373-74.6094C16.9434-68.3594 6.83594-53.2227 6.83594-36.6211C6.83594-13.0371 24.1211 4.29688 47.7051 4.29688C63.9648 4.29688 78.6133-5.27344 85.2051-20.1172C86.084-22.0703 86.4746-23.8281 86.4746-25.293C86.4746-28.7598 84.375-30.8594 81.1035-30.8594C79.4434-30.8594 77.5391-30.3711 75.4395-29.248C73.3887-28.1738 69.5801-27.5879 65.918-27.5879ZM20.9473-36.6211C20.9473-42.4316 22.8516-48.9258 26.6113-53.6621C26.5625-52.6855 26.5137-51.7578 26.5137-50.8301C26.5137-29.0527 40.5273-15.1855 62.8418-15.1855L63.623-15.1855C59.2285-11.6211 53.3691-9.86328 47.7051-9.86328C32.3242-9.86328 20.9473-21.2402 20.9473-36.6211Z"/>
  </g>
  <g id="Heavy-S" transform="matrix(1 0 0 1 2590.25 696)">
   <path d="M66.2598-26.3672C48.7793-26.3672 37.793-36.7676 37.793-53.7598C37.793-58.4473 38.5742-62.9883 39.9414-65.5273C40.918-67.2363 41.3574-68.75 41.3574-70.2148C41.3574-73.0957 39.3555-75.3418 36.1328-75.3418C35.0586-75.3418 33.6914-75.0488 32.0801-74.4141C16.9434-68.2617 6.83594-53.125 6.83594-36.6211C6.83594-13.0859 24.0723 4.19922 47.6074 4.19922C64.0625 4.19922 78.3691-5.17578 84.9121-19.9707C85.6934-21.7285 86.0352-23.291 86.0352-24.5117C86.0352-27.5879 84.082-29.4922 81.25-29.4922C79.834-29.4922 78.2715-29.1016 76.416-28.125C74.0723-27.002 70.1172-26.3672 66.2598-26.3672ZM19.2383-36.7188C19.2383-43.8477 22.0703-51.3672 27.1484-56.4941C26.8066-54.9805 26.6602-53.3691 26.6602-51.6602C26.6602-29.3457 40.7715-15.3809 63.623-15.3809C64.6973-15.3809 65.6738-15.4785 66.6016-15.7715C61.9141-10.8887 54.834-8.25195 47.6562-8.25195C31.2988-8.25195 19.2383-20.3125 19.2383-36.7188Z"/>
  </g>
  <g id="Bold-S" transform="matrix(1 0 0 1 2293.79 696)">
   <path d="M66.6016-25C47.9492-25 36.3281-36.1328 36.3281-54.1992C36.3281-59.2773 37.207-64.0625 38.5742-66.6016C39.4043-68.1152 39.7461-69.3359 39.7461-70.5566C39.7461-72.9492 37.9883-75 35.2051-75C34.4238-75 33.252-74.8047 31.7871-74.2188C16.9434-68.1641 6.83594-53.0762 6.83594-36.6211C6.83594-13.1348 23.9746 4.05273 47.4609 4.05273C64.1113 4.05273 78.125-5.07812 84.6191-19.7754C85.3027-21.3867 85.5469-22.7051 85.5469-23.6816C85.5469-26.2695 83.7402-27.9297 81.4453-27.9297C80.2734-27.9297 79.0527-27.6367 77.4902-26.9043C74.8047-25.7324 70.7031-25 66.6016-25ZM17.334-36.8164C17.334-45.4102 21.1426-54.1504 27.7344-59.668C27.1484-57.5195 26.8066-55.2246 26.8066-52.6367C26.8066-29.6875 41.0645-15.625 64.5508-15.625C66.5527-15.625 68.2617-15.8203 69.9219-16.4062C64.8926-10.0586 56.4941-6.44531 47.6562-6.44531C30.127-6.44531 17.334-19.2383 17.334-36.8164Z"/>
  </g>
  <g id="Semibold-S" transform="matrix(1 0 0 1 1997.25 696)">
   <path d="M66.8457-24.0723C47.4121-24.0723 35.3516-35.6934 35.3516-54.541C35.3516-59.8633 36.2305-64.7949 37.5977-67.334C38.3789-68.75 38.623-69.7266 38.623-70.8496C38.623-72.8516 37.0117-74.8047 34.6191-74.8047C33.9844-74.8047 32.959-74.6094 31.5918-74.0723C16.8945-68.0664 6.83594-53.0273 6.83594-36.6211C6.83594-13.1836 23.9258 3.95508 47.4121 3.95508C64.1602 3.95508 77.9785-5.0293 84.375-19.6777C85.0098-21.0938 85.2051-22.3145 85.2051-23.0469C85.2051-25.3906 83.4961-26.8555 81.543-26.8555C80.5664-26.8555 79.6387-26.6602 78.2715-26.0742C75.3418-24.8047 71.0938-24.0723 66.8457-24.0723ZM16.0156-36.8652C16.0156-46.4844 20.5078-56.0547 28.1738-61.8652C27.3438-59.2285 26.9043-56.4453 26.9043-53.2715C26.9043-29.8828 41.3086-15.8203 65.1367-15.8203C67.8223-15.8203 70.0195-16.0645 72.2168-16.8457C66.9434-9.52148 57.6172-5.17578 47.6074-5.17578C29.3457-5.17578 16.0156-18.5547 16.0156-36.8652Z"/>
  </g>
  <g id="Medium-S" transform="matrix(1 0 0 1 1700.66 696)">
   <path d="M67.041-23.3887C47.0215-23.3887 34.5703-35.4004 34.5703-54.7363C34.5703-60.3027 35.5469-65.332 36.8652-67.8711C37.5977-69.1895 37.793-70.0195 37.793-71.0449C37.793-72.7539 36.3281-74.6094 34.1309-74.6094C33.6426-74.6094 32.7148-74.4629 31.3965-73.9746C16.8945-68.0176 6.83594-52.9785 6.83594-36.6211C6.83594-13.1836 23.877 3.90625 47.3145 3.90625C64.209 3.90625 77.832-4.98047 84.2285-19.5801C84.8145-20.8984 84.9609-21.9727 84.9609-22.6074C84.9609-24.707 83.3008-26.0742 81.6406-26.0742C80.7617-26.0742 80.0293-25.9277 78.8086-25.3906C75.7324-24.1699 71.4355-23.3887 67.041-23.3887ZM14.9902-36.9141C14.9902-47.3145 20.0684-57.4707 28.4668-63.5254C27.4902-60.5957 27.002-57.4219 27.002-53.7598C27.002-30.0781 41.4551-15.918 65.625-15.918C68.75-15.918 71.3379-16.2598 73.9746-17.1875C68.5059-9.08203 58.4473-4.24805 47.6074-4.24805C28.7598-4.24805 14.9902-17.9688 14.9902-36.9141Z"/>
  </g>
  <g id="Regular-S" transform="matrix(1 0 0 1 1404.12 696)">
   <path d="M67.2852-22.4609C46.4844-22.4609 33.5938-34.9609 33.5938-55.0781C33.5938-60.8887 34.5703-66.0645 35.9375-68.6035C36.5723-69.8242 36.6699-70.4102 36.6699-71.2891C36.6699-72.6562 35.3516-74.3652 33.5449-74.3652C33.252-74.3652 32.4219-74.2676 31.2012-73.8281C16.8945-67.9688 6.83594-52.8809 6.83594-36.6699C6.83594-13.2324 23.8281 3.80859 47.2656 3.80859C64.2578 3.80859 77.6855-4.93164 83.9844-19.4824C84.5215-20.6543 84.6191-21.582 84.6191-22.0215C84.6191-23.8281 83.0566-25 81.7871-25C81.0547-25 80.5664-24.9512 79.541-24.5605C76.2695-23.291 71.8262-22.4609 67.2852-22.4609ZM13.6719-36.9629C13.6719-48.3887 19.4336-59.375 28.9062-65.7227C27.6855-62.3047 27.0996-58.6426 27.0996-54.3945C27.0996-30.3223 41.6504-16.1133 66.2109-16.1133C70.0195-16.1133 73.0957-16.5039 76.2695-17.627C70.5566-8.49609 59.5703-2.97852 47.5586-2.97852C27.9785-2.97852 13.6719-17.2852 13.6719-36.9629Z"/>
  </g>
  <g id="Light-S" transform="matrix(1 0 0 1 1108.14 696)">
   <path d="M66.6992-21.7285C45.3125-21.7285 32.0801-34.5703 32.0801-55.2246C32.0801-61.0352 33.0566-66.0645 34.4727-69.043C35.0098-70.0684 35.1074-70.5566 35.1074-71.2402C35.1074-72.3633 34.082-73.6816 32.6172-73.6816C32.3242-73.6816 31.6406-73.584 30.6641-73.1934C16.6992-67.5781 6.83594-52.7344 6.83594-36.8164C6.83594-13.7695 23.584 3.02734 46.6309 3.02734C62.9883 3.02734 76.5137-5.71289 82.666-19.7266C83.0566-20.6543 83.1543-21.3867 83.1543-21.7773C83.1543-23.1934 81.9824-24.1699 80.8594-24.1699C80.3223-24.1699 79.8828-24.1211 79.1016-23.7793C76.123-22.5586 71.2402-21.7285 66.6992-21.7285ZM12.1582-37.0117C12.1582-49.3164 18.7012-60.9375 29.0527-67.0898C27.7344-63.4277 27.0508-59.2285 27.0508-54.7852C27.0508-31.0059 41.6504-16.7969 65.9668-16.7969C69.9707-16.7969 73.4863-17.2852 76.6602-18.4082C70.752-8.34961 59.375-2.24609 46.8262-2.24609C26.7578-2.24609 12.1582-16.8945 12.1582-37.0117Z"/>
  </g>
  <g id="Thin-S" transform="matrix(1 0 0 1 812.404 696)">
   <path d="M65.8691-20.8496C43.7988-20.8496 30.127-34.082 30.127-55.4688C30.127-61.2305 31.0059-66.0645 32.6172-69.5801C32.9102-70.3613 33.0078-70.752 33.0078-71.1914C33.0078-71.9727 32.373-72.7051 31.4453-72.7051C31.1523-72.7051 30.6152-72.6074 29.9805-72.4121C16.4062-67.0898 6.83594-52.5391 6.83594-36.9629C6.83594-14.4531 23.2422 2.00195 45.8008 2.00195C61.2793 2.00195 75.0488-6.73828 80.9082-20.0684C81.1523-20.6543 81.2012-21.1426 81.2012-21.4355C81.2012-22.4121 80.5176-23.0469 79.6875-23.0469C79.2969-23.0469 78.9551-22.998 78.4668-22.7539C75.9277-21.6797 70.5078-20.8496 65.8691-20.8496ZM10.1074-37.0605C10.1074-50.4883 17.6758-63.0859 29.1992-68.8965C27.7832-64.9414 26.9531-60.0098 26.9531-55.2734C26.9531-31.9336 41.6016-17.7246 65.625-17.7246C69.873-17.7246 73.9746-18.3105 77.2461-19.4336C71.0449-8.20312 59.082-1.2207 45.8984-1.2207C25.1953-1.2207 10.1074-16.4062 10.1074-37.0605Z"/>
  </g>
  <g id="Ultralight-S" transform="matrix(1 0 0 1 516.181 696)">
   <path d="M65.4785-20.3613C43.0176-20.3613 29.1016-33.7891 29.1016-55.5664C29.1016-61.3281 29.9316-66.0645 31.6406-69.9219C31.8359-70.5078 31.9336-70.8496 31.9336-71.1426C31.9336-71.7773 31.4941-72.2168 30.8594-72.2168C30.5664-72.2168 30.0781-72.1191 29.6387-71.9727C16.2598-66.7969 6.83594-52.4414 6.83594-37.1094C6.83594-14.7949 23.0957 1.46484 45.3613 1.46484C60.4004 1.46484 74.2676-7.27539 79.9805-20.2637C80.1758-20.6543 80.2246-20.9961 80.2246-21.2402C80.2246-21.9727 79.7852-22.4609 79.0527-22.4609C78.7598-22.4609 78.4668-22.4121 78.125-22.2168C75.8301-21.1914 70.1172-20.3613 65.4785-20.3613ZM9.0332-37.1094C9.0332-51.0742 17.1387-64.1602 29.3457-69.8242C27.832-65.6738 26.9043-60.4004 26.9043-55.5664C26.9043-32.4219 41.6016-18.2129 65.4297-18.2129C69.8242-18.2129 74.2676-18.8477 77.5391-19.9707C71.1914-8.05664 58.9355-0.683594 45.3613-0.683594C24.4141-0.683594 9.0332-16.1133 9.0332-37.1094Z"/>
  </g>
 </g>
</svg>
